<svg width="281" height="168" viewBox="0 0 281 168" fill="none" xmlns="http://www.w3.org/2000/svg">
<g opacity="0.87">
<path d="M280.823 131.622C280.623 128.08 278.952 124.773 276.246 122.501C275.828 120.997 275.11 119.577 274.124 118.374C273.807 115.05 272.186 111.993 269.614 109.854C270.031 109.487 270.382 109.069 270.666 108.585C273.339 107.466 275.327 105.16 276.029 102.337C277.532 100.934 278.468 99.0125 278.618 96.9577C278.668 96.1224 278.501 95.3038 278.167 94.5354C279.437 93.3159 279.904 91.4782 279.37 89.791C278.468 87.2016 275.344 85.5143 271.134 85.3305C269.864 84.2447 268.21 83.6767 266.54 83.7602C265.704 83.7602 264.869 83.8604 264.067 84.0609C263.299 83.7101 262.464 83.543 261.628 83.5597C259.991 83.5764 258.404 84.0108 256.984 84.8294C256.8 84.8127 256.617 84.796 256.416 84.796C254.478 84.9964 252.641 85.7983 251.17 87.1013C250.135 87.9366 249.216 88.9056 248.414 89.9747C247.612 88.9056 246.693 87.9366 245.658 87.1013C244.204 85.7983 242.367 84.9964 240.412 84.796C240.228 84.796 240.044 84.796 239.844 84.8294C238.407 84.0275 236.82 83.5931 235.183 83.5764C234.348 83.5597 233.513 83.7268 232.744 84.0776C231.926 83.8771 231.107 83.7769 230.272 83.7769C228.601 83.7101 226.964 84.2614 225.678 85.3472C221.468 85.531 218.327 87.2016 217.442 89.8077C216.89 91.4949 217.358 93.3326 218.644 94.5521C218.294 95.3038 218.143 96.1391 218.193 96.9744C218.344 99.0292 219.279 100.95 220.783 102.354C221.484 105.16 223.472 107.482 226.145 108.602C226.413 109.086 226.763 109.52 227.181 109.871C224.608 112.01 222.988 115.067 222.671 118.391C221.685 119.611 220.967 121.014 220.549 122.517C217.826 124.806 216.172 128.097 215.972 131.639C215.504 135.13 216.523 138.655 218.812 141.345C219.196 143.283 219.998 145.103 221.15 146.707C221.401 149.731 222.637 152.588 224.675 154.843C226.697 157.165 229.42 158.785 232.443 159.454C234.248 161.124 236.353 162.427 238.658 163.296C244.171 168.391 252.674 168.391 258.204 163.296C260.509 162.427 262.614 161.124 264.418 159.454C267.442 158.785 270.148 157.165 272.186 154.843C274.208 152.588 275.444 149.731 275.711 146.707C276.864 145.103 277.666 143.283 278.05 141.345C280.322 138.655 281.358 135.13 280.89 131.639L280.823 131.622Z" fill="black"/>
<path d="M256.249 89.1896C256.433 89.1395 256.617 89.2397 256.667 89.4235C256.667 89.4569 256.667 89.507 256.667 89.5572C256.566 90.5428 257.168 90.4259 257.302 90.2421C258.354 88.7052 260.142 87.8365 262.013 87.9868C262.196 88.0035 262.33 88.1706 262.313 88.3543C262.313 88.4212 262.28 88.4713 262.246 88.5214C261.662 89.3901 262.297 89.5572 262.53 89.4068C264.936 87.9033 267.241 87.9033 268.11 88.5381C268.26 88.655 268.294 88.8555 268.177 89.0059C268.177 89.0226 268.144 89.0393 268.127 89.056C267.241 89.8077 267.743 90.192 268.043 90.075C270.399 89.3567 272.938 89.6741 275.043 90.9771C275.177 91.0941 275.21 91.3113 275.093 91.4449C275.093 91.4449 275.076 91.4616 275.06 91.4783C273.64 92.5642 272.721 94.1679 272.504 95.9387C272.437 96.5234 273.406 96.4065 273.823 96.2895C274.007 96.2394 274.174 96.3564 274.224 96.5234C274.224 96.5401 274.224 96.5735 274.224 96.5902C274.258 97.9935 272.938 99.5472 270.95 100.867C270.683 101.051 270.716 101.468 271.334 101.485C271.518 101.485 271.668 101.635 271.668 101.819C271.668 101.869 271.668 101.936 271.618 101.986C270.917 103.289 269.948 104.525 266.673 105.377C266.49 105.428 266.389 105.611 266.44 105.778C266.473 105.879 266.54 105.962 266.64 105.996C266.807 106.046 266.907 106.213 266.857 106.396C266.84 106.463 266.79 106.53 266.74 106.564C263.483 109.353 255.23 108.251 254.178 103.557C254.161 103.456 254.178 103.373 254.244 103.289C257.753 98.6116 262.497 95.0032 267.926 92.8649C268.06 92.8148 268.127 92.6644 268.093 92.5308C268.06 92.4138 267.926 92.3303 267.809 92.3637C261.845 93.2324 256.483 96.4566 252.941 101.335C252.841 101.468 252.657 101.502 252.507 101.435C247.211 98.6952 251.555 90.643 256.249 89.2063V89.1896ZM225.143 101.953C225.06 101.802 225.11 101.602 225.26 101.502C225.31 101.468 225.36 101.452 225.427 101.452C226.028 101.452 226.079 101.017 225.811 100.833C223.823 99.5137 222.504 97.9601 222.537 96.5568C222.537 96.3731 222.704 96.2227 222.888 96.2394C222.905 96.2394 222.938 96.2394 222.955 96.2394C223.372 96.3397 224.341 96.4733 224.274 95.8886C224.057 94.1178 223.138 92.5141 221.718 91.4282C221.585 91.3113 221.568 91.0941 221.685 90.9604C221.685 90.9604 221.702 90.9437 221.718 90.927C223.807 89.6407 226.363 89.3066 228.718 90.0249C229.036 90.1419 229.537 89.7576 228.635 89.0059C228.501 88.8889 228.484 88.6718 228.601 88.5381C228.601 88.5214 228.635 88.5047 228.651 88.488C229.537 87.8532 231.825 87.8532 234.231 89.3567C234.465 89.507 235.1 89.3567 234.515 88.4713C234.398 88.3209 234.431 88.1205 234.565 88.0035C234.615 87.9701 234.665 87.9367 234.732 87.9367C236.586 87.7864 238.391 88.655 239.443 90.192C239.577 90.3757 240.178 90.4927 240.078 89.507C240.061 89.3233 240.195 89.1562 240.379 89.1395C240.429 89.1395 240.462 89.1395 240.512 89.1395C245.207 90.5762 249.55 98.6283 244.254 101.368C244.104 101.452 243.92 101.401 243.82 101.268C240.278 96.4065 234.916 93.1656 228.952 92.2969C228.818 92.2635 228.668 92.3637 228.651 92.4974C228.635 92.631 228.701 92.7479 228.818 92.7981C234.264 94.9197 239.009 98.5281 242.5 103.206C242.567 103.289 242.584 103.389 242.567 103.473C241.515 108.184 233.262 109.287 230.004 106.48C229.854 106.38 229.837 106.179 229.938 106.029C229.988 105.979 230.038 105.929 230.105 105.912C230.272 105.845 230.355 105.645 230.288 105.478C230.255 105.377 230.172 105.311 230.071 105.277C226.797 104.425 225.845 103.189 225.126 101.886L225.143 101.953Z" fill="#49AE4B"/>
<path d="M269.229 116.352C270.582 119.96 269.53 121.698 266.306 119.86C263.716 118.423 261.411 116.502 259.54 114.197C257.118 111.323 258.688 110.037 262.514 110.722C265.47 111.507 267.926 113.579 269.229 116.352ZM254.795 112.292C259.406 116.118 254.127 118.824 248.381 118.824C242.634 118.824 237.371 116.118 241.966 112.292C245.708 109.285 251.037 109.285 254.779 112.292H254.795ZM227.532 116.352C228.818 113.579 231.274 111.507 234.247 110.722C238.073 110.02 239.643 111.307 237.221 114.197C235.35 116.502 233.061 118.423 230.455 119.86C227.231 121.698 226.179 119.96 227.532 116.352ZM220.866 136.415C219.797 133.525 220.081 130.301 221.635 127.645C223.339 124.755 225.043 124.872 225.728 127.311C226.596 130.685 226.279 134.26 224.842 137.451C223.589 139.957 222.002 139.105 220.866 136.415ZM233.128 155.159C228.868 154.09 225.761 150.398 225.427 146.021C226.062 131.17 247.478 157.698 233.128 155.159ZM233.563 136.649C229.971 134.578 229.019 129.499 231.441 125.306C233.863 121.113 238.725 119.409 242.316 121.481C245.908 123.552 246.86 128.631 244.438 132.824C242.016 137.017 237.154 138.721 233.563 136.649ZM254.361 160.822C250.786 163.395 245.958 163.395 242.383 160.822C238.825 158.367 242.4 155.543 248.381 155.543C254.361 155.543 257.936 158.367 254.378 160.822H254.361Z" fill="#CE2255"/>
<path d="M248.381 151.835C252.984 151.835 256.717 148.634 256.717 144.685C256.717 140.736 252.984 137.535 248.381 137.535C243.777 137.535 240.044 140.736 240.044 144.685C240.044 148.634 243.777 151.835 248.381 151.835Z" fill="#CE2255"/>
<path d="M252.306 132.825C249.884 128.632 250.836 123.553 254.428 121.482C258.02 119.41 262.898 121.131 265.303 125.307C267.726 129.5 266.774 134.579 263.182 136.65C259.59 138.722 254.729 137.001 252.306 132.825ZM263.616 155.16C249.266 157.683 270.683 131.154 271.318 146.022C270.983 150.416 267.876 154.091 263.616 155.16ZM275.878 136.416C274.742 139.106 273.172 139.958 271.902 137.452C270.466 134.278 270.148 130.703 271.017 127.312C271.702 124.856 273.406 124.739 275.11 127.646C276.663 130.302 276.947 133.526 275.878 136.416Z" fill="#CE2255"/>
</g>
<g opacity="0.87">
<path d="M146.228 83.5588C169.302 83.5588 188.007 64.8535 188.007 41.7794C188.007 18.7053 169.302 0 146.228 0C123.154 0 104.448 18.7053 104.448 41.7794C104.448 64.8535 123.154 83.5588 146.228 83.5588Z" fill="#068286"/>
<path fill-rule="evenodd" clip-rule="evenodd" d="M172.766 41.7777C172.766 34.625 166.9 28.8428 159.681 28.8428C159.012 28.8428 158.327 28.8762 157.675 28.9932C152.077 29.7953 148.333 33.9399 146.228 37.1151C144.122 33.9399 140.379 29.8121 134.78 28.9932C134.112 28.8929 133.427 28.8428 132.775 28.8428C125.555 28.8428 119.689 34.6418 119.689 41.7777C119.689 48.9136 125.555 54.7126 132.775 54.7126C133.443 54.7126 134.128 54.6792 134.797 54.5622C140.395 53.7266 144.139 49.5988 146.244 46.4236C148.35 49.5988 152.094 53.7266 157.692 54.5622C158.36 54.6625 159.046 54.7126 159.714 54.7126C166.883 54.7126 172.749 48.9136 172.749 41.7777H172.766ZM134.128 50.0333C133.677 50.1001 133.209 50.1336 132.758 50.1336C128.012 50.1336 124.168 46.3734 124.168 41.7777C124.168 37.1819 128.029 33.4218 132.775 33.4218C133.226 33.4218 133.694 33.4552 134.145 33.5221C139.426 34.2908 142.651 39.6386 143.754 41.7777C142.635 43.9335 139.393 49.2645 134.128 50.0333ZM158.31 33.5221C153.029 34.2908 149.787 39.6386 148.701 41.7777C149.787 43.9168 153.029 49.2645 158.31 50.0333C158.762 50.0834 159.229 50.1336 159.681 50.1336C164.41 50.1336 168.271 46.3901 168.271 41.7777C168.271 37.1652 164.427 33.4218 159.681 33.4218C159.229 33.4218 158.762 33.4552 158.31 33.5221ZM129.081 40.3906H136.986V42.8807H129.081V40.3906ZM163.341 42.8974H160.667V45.5211H158.11V42.8974H155.436V40.3906H158.11V37.7669H160.667V40.3906H163.341V42.8974Z" fill="white"/>
</g>
<g opacity="0.87">
<path d="M27.577 145.833C27.577 149.092 24.953 151.716 21.6939 151.716C18.4348 151.716 15.8108 149.092 15.8108 145.833C15.8108 142.574 18.4348 139.95 21.6939 139.95C24.953 139.95 27.577 142.574 27.577 145.833Z" fill="#E7372D"/>
<path d="M78.9376 139.698C75.0768 112.873 54.0346 91.8305 27.2096 87.9697C24.1009 89.6411 21.2095 91.7135 18.6523 94.137V99.8195C45.3938 99.8195 67.0376 121.463 67.0711 148.205H72.7536C75.1771 145.664 77.2495 142.79 78.9209 139.698" fill="#E7372D"/>
<path d="M83.5501 121.832C83.5501 100.707 66.4022 83.5586 45.2765 83.5586H45.0759C43.7221 83.5586 42.4017 83.5586 41.0981 83.7592L40.229 86.2996C59.0817 92.9014 73.9232 107.743 80.5751 126.612L83.1156 125.693C83.1156 124.423 83.3496 123.153 83.3496 121.715" fill="#E7372D"/>
<path d="M45.5273 167.108C20.4572 167.108 0.116994 146.869 0 121.798C0 109.698 4.78003 98.1155 13.3373 89.6084L15.9279 92.0318C-0.551542 108.394 -0.668537 134.969 15.6437 151.431C15.7273 151.515 15.8109 151.598 15.9279 151.715C32.2736 168.195 58.8646 168.312 75.3273 152L75.6114 151.715L78.0349 154.139C69.394 162.646 57.6612 167.342 45.5273 167.108Z" fill="#E7372D"/>
<path d="M45.0093 150.846C45.8449 141.737 41.9006 132.863 34.6302 127.33C30.7695 124.305 26.1566 122.433 21.293 121.915C20.0227 121.748 19.1035 120.645 19.1871 119.375C19.3041 118.105 20.4239 117.102 21.6941 117.219H21.7776C38.8922 119.007 51.2935 134.25 49.6222 151.364C49.455 153.203 49.104 154.991 48.5859 156.729L55.5053 158.685C57.5276 158.083 59.5666 157.331 61.472 156.412C61.9901 153.704 62.2241 150.997 62.2241 148.256C62.2241 126.645 46.4299 108.311 25.1036 105.051C22.7972 104.617 20.4406 104.617 18.1341 105.051C15.226 105.804 12.602 107.442 10.6131 109.715C5.24809 115.915 5.91663 125.308 12.1674 130.723C13.6716 131.993 15.3931 132.996 17.265 133.581C18.5018 133.865 19.7386 134.099 21.0088 134.25C27.7276 135.403 32.6246 141.219 32.6246 148.022C32.6246 150.696 31.8725 153.32 30.4018 155.543L35.1818 158.601C37.5217 159.236 39.9117 159.637 42.3518 159.788C43.7892 156.93 44.6583 153.821 44.9758 150.629" fill="#E7372D"/>
</g>
</svg>
